<svg width="168" height="32" viewBox="0 0 168 22" fill="none" xmlns="http://www.w3.org/2000/svg">
<path d="M0.604453 17V1.6H7.88645C9.58779 1.6 11.0838 1.91533 12.3745 2.546C13.6651 3.17667 14.6698 4.064 15.3885 5.208C16.1218 6.352 16.4885 7.716 16.4885 9.3C16.4885 10.8693 16.1218 12.2333 15.3885 13.392C14.6698 14.536 13.6651 15.4233 12.3745 16.054C11.0838 16.6847 9.58779 17 7.88645 17H0.604453ZM4.96045 13.524H7.71045C8.59045 13.524 9.35312 13.3627 9.99845 13.04C10.6585 12.7027 11.1718 12.2187 11.5385 11.588C11.9051 10.9427 12.0885 10.18 12.0885 9.3C12.0885 8.40533 11.9051 7.64267 11.5385 7.012C11.1718 6.38133 10.6585 5.90467 9.99845 5.582C9.35312 5.24467 8.59045 5.076 7.71045 5.076H4.96045V13.524ZM23.9502 17.198C22.5422 17.198 21.3102 16.934 20.2542 16.406C19.2129 15.8633 18.3989 15.13 17.8122 14.206C17.2402 13.2673 16.9542 12.204 16.9542 11.016C16.9542 9.828 17.2329 8.772 17.7902 7.848C18.3622 6.90933 19.1469 6.18333 20.1442 5.67C21.1416 5.142 22.2636 4.878 23.5102 4.878C24.6836 4.878 25.7542 5.12 26.7222 5.604C27.6902 6.07333 28.4602 6.77 29.0322 7.694C29.6042 8.618 29.8902 9.74 29.8902 11.06C29.8902 11.2067 29.8829 11.3753 29.8682 11.566C29.8536 11.7567 29.8389 11.9327 29.8242 12.094H20.3862V9.894H27.6022L26.0182 10.51C26.0329 9.96733 25.9302 9.498 25.7102 9.102C25.5049 8.706 25.2116 8.398 24.8302 8.178C24.4636 7.958 24.0309 7.848 23.5322 7.848C23.0336 7.848 22.5936 7.958 22.2122 8.178C21.8456 8.398 21.5596 8.71333 21.3542 9.124C21.1489 9.52 21.0462 9.98933 21.0462 10.532V11.17C21.0462 11.7567 21.1636 12.2627 21.3982 12.688C21.6476 13.1133 21.9996 13.4433 22.4542 13.678C22.9089 13.898 23.4516 14.008 24.0822 14.008C24.6689 14.008 25.1676 13.9273 25.5782 13.766C26.0036 13.59 26.4216 13.326 26.8322 12.974L29.0322 15.262C28.4602 15.8927 27.7562 16.3767 26.9202 16.714C26.0842 17.0367 25.0942 17.198 23.9502 17.198ZM36.7675 21.466C35.6235 21.466 34.5308 21.334 33.4895 21.07C32.4628 20.806 31.5828 20.4173 30.8495 19.904L32.3675 16.978C32.8661 17.374 33.4821 17.682 34.2155 17.902C34.9635 18.1367 35.6895 18.254 36.3935 18.254C37.5228 18.254 38.3368 18.0047 38.8355 17.506C39.3341 17.022 39.5835 16.3107 39.5835 15.372V13.964L39.8035 10.62L39.7815 7.254V5.076H43.7635V14.822C43.7635 17.0807 43.1548 18.7527 41.9375 19.838C40.7201 20.9233 38.9968 21.466 36.7675 21.466ZM36.0415 16.384C34.9855 16.384 34.0101 16.1493 33.1155 15.68C32.2355 15.196 31.5241 14.5287 30.9815 13.678C30.4535 12.8127 30.1895 11.7933 30.1895 10.62C30.1895 9.44667 30.4535 8.43467 30.9815 7.584C31.5241 6.71867 32.2355 6.05133 33.1155 5.582C34.0101 5.11267 34.9855 4.878 36.0415 4.878C37.0535 4.878 37.9188 5.08333 38.6375 5.494C39.3561 5.89 39.8988 6.51333 40.2655 7.364C40.6468 8.21467 40.8375 9.3 40.8375 10.62C40.8375 11.94 40.6468 13.0253 40.2655 13.876C39.8988 14.7267 39.3561 15.3573 38.6375 15.768C37.9188 16.1787 37.0535 16.384 36.0415 16.384ZM37.0315 13.062C37.5301 13.062 37.9701 12.9593 38.3515 12.754C38.7475 12.5487 39.0555 12.2627 39.2755 11.896C39.5101 11.5293 39.6275 11.104 39.6275 10.62C39.6275 10.136 39.5101 9.71067 39.2755 9.344C39.0555 8.97733 38.7475 8.69867 38.3515 8.508C37.9701 8.30267 37.5301 8.2 37.0315 8.2C36.5328 8.2 36.0855 8.30267 35.6895 8.508C35.2935 8.69867 34.9781 8.97733 34.7435 9.344C34.5235 9.71067 34.4135 10.136 34.4135 10.62C34.4135 11.104 34.5235 11.5293 34.7435 11.896C34.9781 12.2627 35.2935 12.5487 35.6895 12.754C36.0855 12.9593 36.5328 13.062 37.0315 13.062ZM51.8172 17.198C50.4092 17.198 49.1772 16.934 48.1212 16.406C47.0799 15.8633 46.2659 15.13 45.6792 14.206C45.1072 13.2673 44.8212 12.204 44.8212 11.016C44.8212 9.828 45.0999 8.772 45.6572 7.848C46.2292 6.90933 47.0139 6.18333 48.0112 5.67C49.0085 5.142 50.1305 4.878 51.3772 4.878C52.5505 4.878 53.6212 5.12 54.5892 5.604C55.5572 6.07333 56.3272 6.77 56.8992 7.694C57.4712 8.618 57.7572 9.74 57.7572 11.06C57.7572 11.2067 57.7499 11.3753 57.7352 11.566C57.7205 11.7567 57.7059 11.9327 57.6912 12.094H48.2532V9.894H55.4692L53.8852 10.51C53.8999 9.96733 53.7972 9.498 53.5772 9.102C53.3719 8.706 53.0785 8.398 52.6972 8.178C52.3305 7.958 51.8979 7.848 51.3992 7.848C50.9005 7.848 50.4605 7.958 50.0792 8.178C49.7125 8.398 49.4265 8.71333 49.2212 9.124C49.0159 9.52 48.9132 9.98933 48.9132 10.532V11.17C48.9132 11.7567 49.0305 12.2627 49.2652 12.688C49.5145 13.1133 49.8665 13.4433 50.3212 13.678C50.7759 13.898 51.3185 14.008 51.9492 14.008C52.5359 14.008 53.0345 13.9273 53.4452 13.766C53.8705 13.59 54.2885 13.326 54.6992 12.974L56.8992 15.262C56.3272 15.8927 55.6232 16.3767 54.7872 16.714C53.9512 17.0367 52.9612 17.198 51.8172 17.198ZM66.5704 4.878C67.4944 4.878 68.3304 5.06867 69.0784 5.45C69.8264 5.81667 70.4131 6.38867 70.8384 7.166C71.2784 7.94333 71.4984 8.948 71.4984 10.18V17H67.3184V10.862C67.3184 10.0113 67.1424 9.39533 66.7904 9.014C66.4531 8.618 65.9764 8.42 65.3604 8.42C64.9204 8.42 64.5171 8.52267 64.1504 8.728C63.7838 8.91867 63.4978 9.21933 63.2924 9.63C63.0871 10.0407 62.9844 10.576 62.9844 11.236V17H58.8044V5.076H62.7864V8.464L62.0164 7.474C62.4711 6.60867 63.0944 5.96333 63.8864 5.538C64.6784 5.098 65.5731 4.878 66.5704 4.878ZM81.1188 17.308C79.9014 17.308 78.7721 17.1173 77.7308 16.736C76.7041 16.34 75.8094 15.7827 75.0468 15.064C74.2988 14.3453 73.7121 13.502 73.2868 12.534C72.8614 11.5513 72.6488 10.4733 72.6488 9.3C72.6488 8.12667 72.8614 7.056 73.2868 6.088C73.7121 5.10533 74.2988 4.25467 75.0468 3.536C75.8094 2.81733 76.7041 2.26733 77.7308 1.886C78.7721 1.49 79.9014 1.292 81.1188 1.292C82.5414 1.292 83.8101 1.54133 84.9248 2.04C86.0541 2.53867 86.9928 3.25733 87.7408 4.196L84.9688 6.704C84.4701 6.11733 83.9201 5.67 83.3188 5.362C82.7321 5.054 82.0721 4.9 81.3388 4.9C80.7081 4.9 80.1288 5.00267 79.6008 5.208C79.0728 5.41333 78.6181 5.714 78.2368 6.11C77.8701 6.49133 77.5768 6.95333 77.3568 7.496C77.1514 8.03867 77.0488 8.64 77.0488 9.3C77.0488 9.96 77.1514 10.5613 77.3568 11.104C77.5768 11.6467 77.8701 12.116 78.2368 12.512C78.6181 12.8933 79.0728 13.1867 79.6008 13.392C80.1288 13.5973 80.7081 13.7 81.3388 13.7C82.0721 13.7 82.7321 13.546 83.3188 13.238C83.9201 12.93 84.4701 12.4827 84.9688 11.896L87.7408 14.404C86.9928 15.328 86.0541 16.0467 84.9248 16.56C83.8101 17.0587 82.5414 17.308 81.1188 17.308ZM95.844 17V14.778L95.558 14.228V10.136C95.558 9.476 95.3527 8.97 94.942 8.618C94.546 8.25133 93.908 8.068 93.028 8.068C92.456 8.068 91.8767 8.16333 91.29 8.354C90.7033 8.53 90.2047 8.77933 89.794 9.102L88.386 6.264C89.0607 5.824 89.8673 5.48667 90.806 5.252C91.7593 5.00267 92.7053 4.878 93.644 4.878C95.58 4.878 97.076 5.32533 98.132 6.22C99.2027 7.1 99.738 8.486 99.738 10.378V17H95.844ZM92.324 17.198C91.3707 17.198 90.564 17.0367 89.904 16.714C89.244 16.3913 88.738 15.9513 88.386 15.394C88.0487 14.8367 87.88 14.2133 87.88 13.524C87.88 12.7907 88.0633 12.16 88.43 11.632C88.8113 11.0893 89.3907 10.6787 90.168 10.4C90.9453 10.1067 91.95 9.96 93.182 9.96H95.998V12.138H93.754C93.0793 12.138 92.6027 12.248 92.324 12.468C92.06 12.688 91.928 12.9813 91.928 13.348C91.928 13.7147 92.0673 14.008 92.346 14.228C92.6247 14.448 93.006 14.558 93.49 14.558C93.9447 14.558 94.3553 14.448 94.722 14.228C95.1033 13.9933 95.382 13.6413 95.558 13.172L96.13 14.712C95.91 15.5333 95.4773 16.1567 94.832 16.582C94.2013 16.9927 93.3653 17.198 92.324 17.198ZM106.82 17.198C105.295 17.198 104.107 16.824 103.256 16.076C102.406 15.3133 101.98 14.1693 101.98 12.644V2.414H106.16V12.6C106.16 13.0253 106.278 13.3627 106.512 13.612C106.747 13.8467 107.048 13.964 107.414 13.964C107.913 13.964 108.338 13.8393 108.69 13.59L109.724 16.516C109.372 16.7507 108.94 16.9193 108.426 17.022C107.913 17.1393 107.378 17.198 106.82 17.198ZM100.242 8.64V5.516H108.888V8.64H100.242ZM117.738 17V14.778L117.452 14.228V10.136C117.452 9.476 117.247 8.97 116.836 8.618C116.44 8.25133 115.802 8.068 114.922 8.068C114.35 8.068 113.771 8.16333 113.184 8.354C112.598 8.53 112.099 8.77933 111.688 9.102L110.28 6.264C110.955 5.824 111.762 5.48667 112.7 5.252C113.654 5.00267 114.6 4.878 115.538 4.878C117.474 4.878 118.97 5.32533 120.026 6.22C121.097 7.1 121.632 8.486 121.632 10.378V17H117.738ZM114.218 17.198C113.265 17.198 112.458 17.0367 111.798 16.714C111.138 16.3913 110.632 15.9513 110.28 15.394C109.943 14.8367 109.774 14.2133 109.774 13.524C109.774 12.7907 109.958 12.16 110.324 11.632C110.706 11.0893 111.285 10.6787 112.062 10.4C112.84 10.1067 113.844 9.96 115.076 9.96H117.892V12.138H115.648C114.974 12.138 114.497 12.248 114.218 12.468C113.954 12.688 113.822 12.9813 113.822 13.348C113.822 13.7147 113.962 14.008 114.24 14.228C114.519 14.448 114.9 14.558 115.384 14.558C115.839 14.558 116.25 14.448 116.616 14.228C116.998 13.9933 117.276 13.6413 117.452 13.172L118.024 14.712C117.804 15.5333 117.372 16.1567 116.726 16.582C116.096 16.9927 115.26 17.198 114.218 17.198ZM130.893 17.198C129.881 17.198 129.015 16.978 128.297 16.538C127.578 16.0833 127.028 15.4087 126.647 14.514C126.28 13.6047 126.097 12.446 126.097 11.038C126.097 9.61533 126.273 8.45667 126.625 7.562C126.977 6.65267 127.505 5.978 128.209 5.538C128.927 5.098 129.822 4.878 130.893 4.878C131.978 4.878 132.961 5.13467 133.841 5.648C134.735 6.14667 135.439 6.858 135.953 7.782C136.481 8.69133 136.745 9.77667 136.745 11.038C136.745 12.2993 136.481 13.392 135.953 14.316C135.439 15.24 134.735 15.9513 133.841 16.45C132.961 16.9487 131.978 17.198 130.893 17.198ZM123.391 21.268V5.076H127.373V7.1L127.351 11.038L127.571 14.998V21.268H123.391ZM130.013 13.876C130.482 13.876 130.9 13.766 131.267 13.546C131.648 13.326 131.949 13.0033 132.169 12.578C132.403 12.1527 132.521 11.6393 132.521 11.038C132.521 10.4367 132.403 9.92333 132.169 9.498C131.949 9.07267 131.648 8.75 131.267 8.53C130.9 8.31 130.482 8.2 130.013 8.2C129.543 8.2 129.118 8.31 128.737 8.53C128.37 8.75 128.069 9.07267 127.835 9.498C127.615 9.92333 127.505 10.4367 127.505 11.038C127.505 11.6393 127.615 12.1527 127.835 12.578C128.069 13.0033 128.37 13.326 128.737 13.546C129.118 13.766 129.543 13.876 130.013 13.876ZM142.824 17.198C141.856 17.198 140.983 17.0073 140.206 16.626C139.443 16.2447 138.842 15.6507 138.402 14.844C137.976 14.0227 137.764 12.9887 137.764 11.742V5.076H141.944V11.06C141.944 11.984 142.112 12.644 142.45 13.04C142.802 13.436 143.293 13.634 143.924 13.634C144.334 13.634 144.708 13.5387 145.046 13.348C145.383 13.1573 145.654 12.8567 145.86 12.446C146.065 12.0207 146.168 11.478 146.168 10.818V5.076H150.348V17H146.366V13.634L147.136 14.58C146.725 15.46 146.131 16.12 145.354 16.56C144.576 16.9853 143.733 17.198 142.824 17.198ZM152.16 17V0.675999H156.34V17H152.16ZM164.704 17.198C163.178 17.198 161.99 16.824 161.14 16.076C160.289 15.3133 159.864 14.1693 159.864 12.644V2.414H164.044V12.6C164.044 13.0253 164.161 13.3627 164.396 13.612C164.63 13.8467 164.931 13.964 165.298 13.964C165.796 13.964 166.222 13.8393 166.574 13.59L167.608 16.516C167.256 16.7507 166.823 16.9193 166.31 17.022C165.796 17.1393 165.261 17.198 164.704 17.198ZM158.126 8.64V5.516H166.772V8.64H158.126Z" fill="white"/>
</svg>
