<?xml version="1.0" encoding="UTF-8"?>
<svg xmlns="http://www.w3.org/2000/svg" xmlns:xlink="http://www.w3.org/1999/xlink" width="188px" height="25px" viewBox="0 0 190 25" version="1.1">
<g id="surface1">
<path style=" stroke:none;fill-rule:nonzero;fill:rgb(100%,100%,100%);fill-opacity:1;" d="M 0.683594 19.316406 L 0.683594 1.816406 L 8.917969 1.816406 C 10.84375 1.816406 12.535156 2.175781 13.996094 2.894531 C 15.453125 3.609375 16.589844 4.617188 17.402344 5.917969 C 18.234375 7.21875 18.648438 8.769531 18.648438 10.566406 C 18.648438 12.351562 18.234375 13.902344 17.402344 15.21875 C 16.589844 16.519531 15.453125 17.527344 13.996094 18.242188 C 12.535156 18.960938 10.84375 19.316406 8.917969 19.316406 Z M 5.609375 15.367188 L 8.71875 15.367188 C 9.714844 15.367188 10.578125 15.183594 11.308594 14.816406 C 12.054688 14.433594 12.636719 13.886719 13.050781 13.167969 C 13.464844 12.433594 13.671875 11.566406 13.671875 10.566406 C 13.671875 9.550781 13.464844 8.683594 13.050781 7.96875 C 12.636719 7.25 12.054688 6.710938 11.308594 6.34375 C 10.578125 5.960938 9.714844 5.769531 8.71875 5.769531 L 5.609375 5.769531 Z M 27.085938 19.542969 C 25.496094 19.542969 24.101562 19.242188 22.90625 18.644531 C 21.730469 18.027344 20.808594 17.191406 20.144531 16.144531 C 19.496094 15.078125 19.175781 13.867188 19.175781 12.519531 C 19.175781 11.167969 19.488281 9.96875 20.121094 8.917969 C 20.765625 7.851562 21.652344 7.027344 22.78125 6.441406 C 23.910156 5.84375 25.179688 5.542969 26.589844 5.542969 C 27.914062 5.542969 29.125 5.816406 30.222656 6.367188 C 31.316406 6.902344 32.1875 7.691406 32.835938 8.742188 C 33.480469 9.792969 33.804688 11.066406 33.804688 12.566406 C 33.804688 12.734375 33.796875 12.925781 33.78125 13.144531 C 33.761719 13.359375 33.746094 13.558594 33.730469 13.742188 L 23.054688 13.742188 L 23.054688 11.242188 L 31.214844 11.242188 L 29.425781 11.941406 C 29.441406 11.328125 29.324219 10.792969 29.078125 10.34375 C 28.84375 9.894531 28.511719 9.542969 28.082031 9.292969 C 27.667969 9.042969 27.179688 8.917969 26.613281 8.917969 C 26.050781 8.917969 25.550781 9.042969 25.121094 9.292969 C 24.707031 9.542969 24.382812 9.902344 24.152344 10.367188 C 23.917969 10.816406 23.800781 11.351562 23.800781 11.96875 L 23.800781 12.691406 C 23.800781 13.359375 23.933594 13.933594 24.199219 14.417969 C 24.480469 14.902344 24.878906 15.277344 25.394531 15.542969 C 25.910156 15.792969 26.523438 15.917969 27.234375 15.917969 C 27.898438 15.917969 28.464844 15.828125 28.925781 15.644531 C 29.410156 15.441406 29.882812 15.144531 30.347656 14.742188 L 32.835938 17.34375 C 32.1875 18.058594 31.390625 18.609375 30.445312 18.992188 C 29.5 19.359375 28.378906 19.542969 27.085938 19.542969 Z M 41.582031 24.394531 C 40.289062 24.394531 39.050781 24.242188 37.875 23.941406 C 36.714844 23.644531 35.71875 23.203125 34.890625 22.617188 L 36.605469 19.292969 C 37.171875 19.742188 37.867188 20.09375 38.695312 20.34375 C 39.542969 20.609375 40.363281 20.742188 41.160156 20.742188 C 42.4375 20.742188 43.355469 20.460938 43.921875 19.894531 C 44.484375 19.34375 44.765625 18.535156 44.765625 17.46875 L 44.765625 15.867188 L 45.015625 12.066406 L 44.992188 8.242188 L 44.992188 5.769531 L 49.496094 5.769531 L 49.496094 16.84375 C 49.496094 19.410156 48.804688 21.308594 47.429688 22.542969 C 46.050781 23.777344 44.105469 24.394531 41.582031 24.394531 Z M 40.761719 18.617188 C 39.566406 18.617188 38.464844 18.351562 37.453125 17.816406 C 36.457031 17.269531 35.652344 16.511719 35.039062 15.542969 C 34.441406 14.558594 34.144531 13.402344 34.144531 12.066406 C 34.144531 10.734375 34.441406 9.585938 35.039062 8.617188 C 35.652344 7.636719 36.457031 6.875 37.453125 6.34375 C 38.464844 5.808594 39.566406 5.542969 40.761719 5.542969 C 41.90625 5.542969 42.882812 5.777344 43.695312 6.242188 C 44.511719 6.691406 45.125 7.402344 45.539062 8.367188 C 45.96875 9.335938 46.183594 10.566406 46.183594 12.066406 C 46.183594 13.566406 45.96875 14.800781 45.539062 15.769531 C 45.125 16.734375 44.511719 17.453125 43.695312 17.917969 C 42.882812 18.386719 41.90625 18.617188 40.761719 18.617188 Z M 41.882812 14.84375 C 42.445312 14.84375 42.941406 14.726562 43.375 14.492188 C 43.820312 14.261719 44.167969 13.933594 44.417969 13.519531 C 44.683594 13.101562 44.816406 12.617188 44.816406 12.066406 C 44.816406 11.519531 44.683594 11.035156 44.417969 10.617188 C 44.167969 10.203125 43.820312 9.886719 43.375 9.667969 C 42.941406 9.433594 42.445312 9.316406 41.882812 9.316406 C 41.316406 9.316406 40.8125 9.433594 40.363281 9.667969 C 39.914062 9.886719 39.558594 10.203125 39.292969 10.617188 C 39.042969 11.035156 38.921875 11.519531 38.921875 12.066406 C 38.921875 12.617188 39.042969 13.101562 39.292969 13.519531 C 39.558594 13.933594 39.914062 14.261719 40.363281 14.492188 C 40.8125 14.726562 41.316406 14.84375 41.882812 14.84375 Z M 58.601562 19.542969 C 57.011719 19.542969 55.617188 19.242188 54.421875 18.644531 C 53.246094 18.027344 52.324219 17.191406 51.660156 16.144531 C 51.015625 15.078125 50.691406 13.867188 50.691406 12.519531 C 50.691406 11.167969 51.003906 9.96875 51.636719 8.917969 C 52.28125 7.851562 53.171875 7.027344 54.296875 6.441406 C 55.425781 5.84375 56.695312 5.542969 58.105469 5.542969 C 59.433594 5.542969 60.644531 5.816406 61.738281 6.367188 C 62.832031 6.902344 63.703125 7.691406 64.351562 8.742188 C 64.996094 9.792969 65.320312 11.066406 65.320312 12.566406 C 65.320312 12.734375 65.3125 12.925781 65.296875 13.144531 C 65.277344 13.359375 65.261719 13.558594 65.246094 13.742188 L 54.570312 13.742188 L 54.570312 11.242188 L 62.734375 11.242188 L 60.941406 11.941406 C 60.957031 11.328125 60.84375 10.792969 60.59375 10.34375 C 60.359375 9.894531 60.027344 9.542969 59.597656 9.292969 C 59.183594 9.042969 58.695312 8.917969 58.128906 8.917969 C 57.566406 8.917969 57.070312 9.042969 56.636719 9.292969 C 56.222656 9.542969 55.898438 9.902344 55.667969 10.367188 C 55.433594 10.816406 55.320312 11.351562 55.320312 11.96875 L 55.320312 12.691406 C 55.320312 13.359375 55.449219 13.933594 55.714844 14.417969 C 56 14.902344 56.398438 15.277344 56.910156 15.542969 C 57.425781 15.792969 58.039062 15.917969 58.753906 15.917969 C 59.414062 15.917969 59.980469 15.828125 60.445312 15.644531 C 60.925781 15.441406 61.398438 15.144531 61.863281 14.742188 L 64.351562 17.34375 C 63.703125 18.058594 62.90625 18.609375 61.960938 18.992188 C 61.015625 19.359375 59.898438 19.542969 58.601562 19.542969 Z M 75.289062 5.542969 C 76.332031 5.542969 77.277344 5.761719 78.125 6.191406 C 78.96875 6.609375 79.632812 7.261719 80.113281 8.144531 C 80.613281 9.027344 80.859375 10.167969 80.859375 11.566406 L 80.859375 19.316406 L 76.132812 19.316406 L 76.132812 12.34375 C 76.132812 11.375 75.933594 10.675781 75.535156 10.242188 C 75.15625 9.792969 74.617188 9.566406 73.917969 9.566406 C 73.421875 9.566406 72.964844 9.683594 72.550781 9.917969 C 72.136719 10.136719 71.8125 10.476562 71.582031 10.941406 C 71.347656 11.410156 71.230469 12.019531 71.230469 12.769531 L 71.230469 19.316406 L 66.503906 19.316406 L 66.503906 5.769531 L 71.007812 5.769531 L 71.007812 9.617188 L 70.136719 8.492188 C 70.652344 7.511719 71.355469 6.777344 72.253906 6.292969 C 73.148438 5.792969 74.160156 5.542969 75.289062 5.542969 Z M 91.742188 19.667969 C 90.363281 19.667969 89.085938 19.453125 87.910156 19.019531 C 86.75 18.566406 85.738281 17.933594 84.875 17.117188 C 84.027344 16.300781 83.363281 15.34375 82.882812 14.242188 C 82.402344 13.125 82.164062 11.902344 82.164062 10.566406 C 82.164062 9.234375 82.402344 8.019531 82.882812 6.917969 C 83.363281 5.800781 84.027344 4.835938 84.875 4.019531 C 85.738281 3.203125 86.75 2.578125 87.910156 2.144531 C 89.085938 1.691406 90.363281 1.46875 91.742188 1.46875 C 93.351562 1.46875 94.785156 1.75 96.046875 2.316406 C 97.324219 2.886719 98.382812 3.703125 99.230469 4.769531 L 96.09375 7.617188 C 95.53125 6.953125 94.910156 6.441406 94.230469 6.09375 C 93.566406 5.742188 92.820312 5.566406 91.992188 5.566406 C 91.277344 5.566406 90.621094 5.683594 90.023438 5.917969 C 89.425781 6.152344 88.914062 6.492188 88.480469 6.941406 C 88.066406 7.375 87.734375 7.902344 87.488281 8.519531 C 87.253906 9.136719 87.136719 9.816406 87.136719 10.566406 C 87.136719 11.316406 87.253906 12 87.488281 12.617188 C 87.734375 13.234375 88.066406 13.769531 88.480469 14.21875 C 88.914062 14.652344 89.425781 14.984375 90.023438 15.21875 C 90.621094 15.453125 91.277344 15.566406 91.992188 15.566406 C 92.820312 15.566406 93.566406 15.394531 94.230469 15.042969 C 94.910156 14.691406 95.53125 14.183594 96.09375 13.519531 L 99.230469 16.367188 C 98.382812 17.417969 97.324219 18.234375 96.046875 18.816406 C 94.785156 19.386719 93.351562 19.667969 91.742188 19.667969 Z M 108.394531 19.316406 L 108.394531 16.792969 L 108.070312 16.167969 L 108.070312 11.519531 C 108.070312 10.769531 107.839844 10.191406 107.375 9.792969 C 106.925781 9.375 106.207031 9.167969 105.210938 9.167969 C 104.5625 9.167969 103.90625 9.277344 103.246094 9.492188 C 102.582031 9.691406 102.015625 9.976562 101.554688 10.34375 L 99.960938 7.117188 C 100.722656 6.617188 101.636719 6.234375 102.695312 5.96875 C 103.777344 5.683594 104.84375 5.542969 105.90625 5.542969 C 108.097656 5.542969 109.789062 6.050781 110.984375 7.066406 C 112.195312 8.066406 112.800781 9.644531 112.800781 11.792969 L 112.800781 19.316406 Z M 104.414062 19.542969 C 103.335938 19.542969 102.421875 19.359375 101.675781 18.992188 C 100.929688 18.625 100.359375 18.125 99.960938 17.492188 C 99.578125 16.859375 99.386719 16.152344 99.386719 15.367188 C 99.386719 14.535156 99.59375 13.816406 100.011719 13.21875 C 100.441406 12.601562 101.097656 12.136719 101.976562 11.816406 C 102.855469 11.484375 103.992188 11.316406 105.382812 11.316406 L 108.570312 11.316406 L 108.570312 13.792969 L 106.03125 13.792969 C 105.269531 13.792969 104.730469 13.917969 104.414062 14.167969 C 104.117188 14.417969 103.964844 14.75 103.964844 15.167969 C 103.964844 15.585938 104.125 15.917969 104.4375 16.167969 C 104.753906 16.417969 105.183594 16.542969 105.734375 16.542969 C 106.246094 16.542969 106.710938 16.417969 107.125 16.167969 C 107.558594 15.902344 107.871094 15.5 108.070312 14.96875 L 108.71875 16.71875 C 108.46875 17.652344 107.980469 18.359375 107.25 18.84375 C 106.539062 19.308594 105.589844 19.542969 104.414062 19.542969 Z M 120.808594 19.542969 C 119.082031 19.542969 117.738281 19.117188 116.777344 18.269531 C 115.816406 17.402344 115.335938 16.101562 115.335938 14.367188 L 115.335938 2.742188 L 120.0625 2.742188 L 120.0625 14.316406 C 120.0625 14.800781 120.195312 15.183594 120.460938 15.46875 C 120.726562 15.734375 121.066406 15.867188 121.480469 15.867188 C 122.042969 15.867188 122.523438 15.726562 122.921875 15.441406 L 124.09375 18.769531 C 123.695312 19.035156 123.207031 19.226562 122.625 19.34375 C 122.042969 19.476562 121.4375 19.542969 120.808594 19.542969 Z M 113.367188 9.816406 L 113.367188 6.269531 L 123.148438 6.269531 L 123.148438 9.816406 Z M 133.15625 19.316406 L 133.15625 16.792969 L 132.832031 16.167969 L 132.832031 11.519531 C 132.832031 10.769531 132.601562 10.191406 132.136719 9.792969 C 131.6875 9.375 130.964844 9.167969 129.972656 9.167969 C 129.324219 9.167969 128.667969 9.277344 128.003906 9.492188 C 127.34375 9.691406 126.777344 9.976562 126.3125 10.34375 L 124.722656 7.117188 C 125.484375 6.617188 126.398438 6.234375 127.457031 5.96875 C 128.539062 5.683594 129.605469 5.542969 130.667969 5.542969 C 132.859375 5.542969 134.550781 6.050781 135.742188 7.066406 C 136.953125 8.066406 137.558594 9.644531 137.558594 11.792969 L 137.558594 19.316406 Z M 129.175781 19.542969 C 128.097656 19.542969 127.183594 19.359375 126.4375 18.992188 C 125.691406 18.625 125.121094 18.125 124.722656 17.492188 C 124.339844 16.859375 124.148438 16.152344 124.148438 15.367188 C 124.148438 14.535156 124.355469 13.816406 124.769531 13.21875 C 125.203125 12.601562 125.859375 12.136719 126.738281 11.816406 C 127.617188 11.484375 128.753906 11.316406 130.144531 11.316406 L 133.332031 11.316406 L 133.332031 13.792969 L 130.792969 13.792969 C 130.03125 13.792969 129.492188 13.917969 129.175781 14.167969 C 128.875 14.417969 128.726562 14.75 128.726562 15.167969 C 128.726562 15.585938 128.886719 15.917969 129.199219 16.167969 C 129.515625 16.417969 129.945312 16.542969 130.492188 16.542969 C 131.007812 16.542969 131.472656 16.417969 131.886719 16.167969 C 132.320312 15.902344 132.632812 15.5 132.832031 14.96875 L 133.480469 16.71875 C 133.230469 17.652344 132.742188 18.359375 132.011719 18.84375 C 131.300781 19.308594 130.355469 19.542969 129.175781 19.542969 Z M 148.035156 19.542969 C 146.890625 19.542969 145.910156 19.292969 145.097656 18.792969 C 144.285156 18.277344 143.664062 17.511719 143.230469 16.492188 C 142.816406 15.460938 142.609375 14.144531 142.609375 12.542969 C 142.609375 10.925781 142.808594 9.609375 143.207031 8.59375 C 143.605469 7.558594 144.203125 6.792969 145 6.292969 C 145.808594 5.792969 146.824219 5.542969 148.035156 5.542969 C 149.261719 5.542969 150.371094 5.835938 151.367188 6.417969 C 152.378906 6.984375 153.175781 7.792969 153.757812 8.84375 C 154.351562 9.875 154.652344 11.109375 154.652344 12.542969 C 154.652344 13.976562 154.351562 15.21875 153.757812 16.269531 C 153.175781 17.316406 152.378906 18.125 151.367188 18.691406 C 150.371094 19.261719 149.261719 19.542969 148.035156 19.542969 Z M 139.550781 24.167969 L 139.550781 5.769531 L 144.054688 5.769531 L 144.054688 8.066406 L 144.027344 12.542969 L 144.277344 17.042969 L 144.277344 24.167969 Z M 147.039062 15.769531 C 147.570312 15.769531 148.042969 15.644531 148.457031 15.394531 C 148.886719 15.144531 149.226562 14.777344 149.476562 14.292969 C 149.742188 13.808594 149.875 13.226562 149.875 12.542969 C 149.875 11.859375 149.742188 11.277344 149.476562 10.792969 C 149.226562 10.308594 148.886719 9.941406 148.457031 9.691406 C 148.042969 9.441406 147.570312 9.316406 147.039062 9.316406 C 146.507812 9.316406 146.027344 9.441406 145.59375 9.691406 C 145.179688 9.941406 144.839844 10.308594 144.574219 10.792969 C 144.328125 11.277344 144.203125 11.859375 144.203125 12.542969 C 144.203125 13.226562 144.328125 13.808594 144.574219 14.292969 C 144.839844 14.777344 145.179688 15.144531 145.59375 15.394531 C 146.027344 15.644531 146.507812 15.769531 147.039062 15.769531 Z M 161.527344 19.542969 C 160.433594 19.542969 159.445312 19.328125 158.566406 18.894531 C 157.703125 18.460938 157.023438 17.785156 156.527344 16.867188 C 156.042969 15.933594 155.804688 14.761719 155.804688 13.34375 L 155.804688 5.769531 L 160.53125 5.769531 L 160.53125 12.566406 C 160.53125 13.617188 160.722656 14.367188 161.105469 14.816406 C 161.503906 15.269531 162.058594 15.492188 162.769531 15.492188 C 163.234375 15.492188 163.65625 15.386719 164.039062 15.167969 C 164.421875 14.953125 164.726562 14.609375 164.960938 14.144531 C 165.191406 13.660156 165.308594 13.042969 165.308594 12.292969 L 165.308594 5.769531 L 170.035156 5.769531 L 170.035156 19.316406 L 165.53125 19.316406 L 165.53125 15.492188 L 166.402344 16.566406 C 165.9375 17.566406 165.265625 18.316406 164.386719 18.816406 C 163.507812 19.300781 162.554688 19.542969 161.527344 19.542969 Z M 172.085938 19.316406 L 172.085938 0.769531 L 176.8125 0.769531 L 176.8125 19.316406 Z M 186.273438 19.542969 C 184.546875 19.542969 183.203125 19.117188 182.242188 18.269531 C 181.277344 17.402344 180.796875 16.101562 180.796875 14.367188 L 180.796875 2.742188 L 185.527344 2.742188 L 185.527344 14.316406 C 185.527344 14.800781 185.660156 15.183594 185.925781 15.46875 C 186.1875 15.734375 186.527344 15.867188 186.945312 15.867188 C 187.507812 15.867188 187.988281 15.726562 188.386719 15.441406 L 189.558594 18.769531 C 189.160156 19.035156 188.667969 19.226562 188.089844 19.34375 C 187.507812 19.476562 186.902344 19.542969 186.273438 19.542969 Z M 178.832031 9.816406 L 178.832031 6.269531 L 188.609375 6.269531 L 188.609375 9.816406 Z M 178.832031 9.816406 "/>
</g>
</svg>
