<?xml version="1.0" encoding="UTF-8"?>
<svg xmlns="http://www.w3.org/2000/svg" xmlns:xlink="http://www.w3.org/1999/xlink" width="201px" height="27px" viewBox="0 0 203 27" version="1.1">
<g id="surface1">
<path style=" stroke:none;fill-rule:nonzero;fill:rgb(100%,100%,100%);fill-opacity:1;" d="M 0.730469 20.785156 L 0.730469 2.082031 L 9.527344 2.082031 C 11.585938 2.082031 13.394531 2.46875 14.953125 3.234375 C 16.511719 4 17.726562 5.078125 18.59375 6.464844 C 19.480469 7.855469 19.925781 9.511719 19.925781 11.433594 C 19.925781 13.339844 19.480469 15 18.59375 16.40625 C 17.726562 17.796875 16.511719 18.871094 14.953125 19.636719 C 13.394531 20.40625 11.585938 20.785156 9.527344 20.785156 Z M 5.992188 16.5625 L 9.316406 16.5625 C 10.378906 16.5625 11.300781 16.367188 12.082031 15.976562 C 12.878906 15.566406 13.5 14.980469 13.945312 14.214844 C 14.386719 13.429688 14.605469 12.503906 14.605469 11.433594 C 14.605469 10.347656 14.386719 9.421875 13.945312 8.65625 C 13.5 7.890625 12.878906 7.3125 12.082031 6.921875 C 11.300781 6.511719 10.378906 6.308594 9.316406 6.308594 L 5.992188 6.308594 Z M 28.9375 21.027344 C 27.242188 21.027344 25.75 20.703125 24.472656 20.066406 C 23.21875 19.40625 22.230469 18.511719 21.523438 17.394531 C 20.828125 16.253906 20.488281 14.960938 20.488281 13.519531 C 20.488281 12.078125 20.820312 10.796875 21.496094 9.671875 C 22.1875 8.53125 23.132812 7.652344 24.339844 7.027344 C 25.546875 6.386719 26.902344 6.066406 28.410156 6.066406 C 29.824219 6.066406 31.117188 6.359375 32.289062 6.945312 C 33.460938 7.519531 34.390625 8.363281 35.082031 9.484375 C 35.769531 10.605469 36.117188 11.96875 36.117188 13.570312 C 36.117188 13.75 36.109375 13.953125 36.09375 14.1875 C 36.070312 14.417969 36.054688 14.632812 36.039062 14.828125 L 24.632812 14.828125 L 24.632812 12.15625 L 33.351562 12.15625 L 31.4375 12.902344 C 31.457031 12.246094 31.332031 11.675781 31.066406 11.195312 C 30.816406 10.714844 30.460938 10.339844 30.003906 10.074219 C 29.5625 9.804688 29.039062 9.671875 28.433594 9.671875 C 27.832031 9.671875 27.300781 9.804688 26.839844 10.074219 C 26.398438 10.339844 26.050781 10.722656 25.804688 11.222656 C 25.554688 11.699219 25.429688 12.273438 25.429688 12.933594 L 25.429688 13.703125 C 25.429688 14.417969 25.570312 15.03125 25.855469 15.550781 C 26.15625 16.066406 26.582031 16.46875 27.132812 16.75 C 27.683594 17.019531 28.339844 17.152344 29.097656 17.152344 C 29.808594 17.152344 30.414062 17.054688 30.90625 16.859375 C 31.421875 16.644531 31.925781 16.324219 32.425781 15.894531 L 35.082031 18.675781 C 34.390625 19.441406 33.539062 20.027344 32.527344 20.4375 C 31.519531 20.832031 30.320312 21.027344 28.9375 21.027344 Z M 44.425781 26.210938 C 43.046875 26.210938 41.722656 26.046875 40.464844 25.726562 C 39.226562 25.410156 38.164062 24.9375 37.277344 24.3125 L 39.109375 20.757812 C 39.714844 21.238281 40.457031 21.613281 41.34375 21.882812 C 42.25 22.164062 43.125 22.308594 43.976562 22.308594 C 45.339844 22.308594 46.320312 22.007812 46.925781 21.402344 C 47.527344 20.8125 47.828125 19.949219 47.828125 18.808594 L 47.828125 17.097656 L 48.09375 13.035156 L 48.070312 8.949219 L 48.070312 6.308594 L 52.882812 6.308594 L 52.882812 18.140625 C 52.882812 20.882812 52.144531 22.914062 50.675781 24.230469 C 49.203125 25.550781 47.125 26.210938 44.425781 26.210938 Z M 43.550781 20.035156 C 42.273438 20.035156 41.097656 19.753906 40.015625 19.179688 C 38.953125 18.597656 38.089844 17.785156 37.4375 16.75 C 36.796875 15.699219 36.480469 14.464844 36.480469 13.035156 C 36.480469 11.613281 36.796875 10.386719 37.4375 9.351562 C 38.089844 8.304688 38.953125 7.488281 40.015625 6.921875 C 41.097656 6.347656 42.273438 6.066406 43.550781 6.066406 C 44.773438 6.066406 45.816406 6.316406 46.683594 6.8125 C 47.558594 7.292969 48.210938 8.050781 48.65625 9.082031 C 49.113281 10.117188 49.34375 11.433594 49.34375 13.035156 C 49.34375 14.640625 49.113281 15.957031 48.65625 16.992188 C 48.210938 18.023438 47.558594 18.792969 46.683594 19.289062 C 45.816406 19.789062 44.773438 20.035156 43.550781 20.035156 Z M 44.75 16.003906 C 45.347656 16.003906 45.878906 15.878906 46.34375 15.628906 C 46.820312 15.382812 47.191406 15.03125 47.457031 14.589844 C 47.742188 14.144531 47.882812 13.625 47.882812 13.035156 C 47.882812 12.453125 47.742188 11.933594 47.457031 11.488281 C 47.191406 11.046875 46.820312 10.707031 46.34375 10.472656 C 45.878906 10.222656 45.347656 10.097656 44.75 10.097656 C 44.144531 10.097656 43.605469 10.222656 43.125 10.472656 C 42.644531 10.707031 42.265625 11.046875 41.980469 11.488281 C 41.714844 11.933594 41.585938 12.453125 41.585938 13.035156 C 41.585938 13.625 41.714844 14.144531 41.980469 14.589844 C 42.265625 15.03125 42.644531 15.382812 43.125 15.628906 C 43.605469 15.878906 44.144531 16.003906 44.75 16.003906 Z M 62.609375 21.027344 C 60.914062 21.027344 59.421875 20.703125 58.144531 20.066406 C 56.890625 19.40625 55.90625 18.511719 55.195312 17.394531 C 54.507812 16.253906 54.160156 14.960938 54.160156 13.519531 C 54.160156 12.078125 54.492188 10.796875 55.167969 9.671875 C 55.859375 8.53125 56.808594 7.652344 58.011719 7.027344 C 59.21875 6.386719 60.574219 6.066406 62.082031 6.066406 C 63.5 6.066406 64.792969 6.359375 65.960938 6.945312 C 67.132812 7.519531 68.0625 8.363281 68.753906 9.484375 C 69.441406 10.605469 69.789062 11.96875 69.789062 13.570312 C 69.789062 13.75 69.78125 13.953125 69.765625 14.1875 C 69.742188 14.417969 69.726562 14.632812 69.710938 14.828125 L 58.304688 14.828125 L 58.304688 12.15625 L 67.027344 12.15625 L 65.109375 12.902344 C 65.128906 12.246094 65.007812 11.675781 64.738281 11.195312 C 64.488281 10.714844 64.132812 10.339844 63.675781 10.074219 C 63.234375 9.804688 62.710938 9.671875 62.105469 9.671875 C 61.503906 9.671875 60.976562 9.804688 60.511719 10.074219 C 60.070312 10.339844 59.722656 10.722656 59.476562 11.222656 C 59.226562 11.699219 59.105469 12.273438 59.105469 12.933594 L 59.105469 13.703125 C 59.105469 14.417969 59.242188 15.03125 59.527344 15.550781 C 59.832031 16.066406 60.257812 16.46875 60.804688 16.75 C 61.355469 17.019531 62.011719 17.152344 62.773438 17.152344 C 63.480469 17.152344 64.085938 17.054688 64.582031 16.859375 C 65.09375 16.644531 65.597656 16.324219 66.097656 15.894531 L 68.753906 18.675781 C 68.0625 19.441406 67.210938 20.027344 66.199219 20.4375 C 65.191406 20.832031 63.996094 21.027344 62.609375 21.027344 Z M 80.441406 6.066406 C 81.554688 6.066406 82.566406 6.300781 83.46875 6.757812 C 84.371094 7.207031 85.082031 7.902344 85.59375 8.84375 C 86.128906 9.789062 86.390625 11.007812 86.390625 12.503906 L 86.390625 20.785156 L 81.34375 20.785156 L 81.34375 13.332031 C 81.34375 12.296875 81.128906 11.550781 80.703125 11.085938 C 80.296875 10.605469 79.722656 10.363281 78.976562 10.363281 C 78.445312 10.363281 77.957031 10.492188 77.515625 10.742188 C 77.074219 10.972656 76.726562 11.335938 76.480469 11.835938 C 76.230469 12.335938 76.105469 12.988281 76.105469 13.789062 L 76.105469 20.785156 L 71.054688 20.785156 L 71.054688 6.308594 L 75.867188 6.308594 L 75.867188 10.417969 L 74.9375 9.21875 C 75.488281 8.167969 76.238281 7.382812 77.199219 6.867188 C 78.152344 6.332031 79.234375 6.066406 80.441406 6.066406 Z M 98.019531 21.160156 C 96.546875 21.160156 95.179688 20.929688 93.925781 20.46875 C 92.683594 19.984375 91.605469 19.304688 90.683594 18.433594 C 89.777344 17.5625 89.066406 16.539062 88.554688 15.363281 C 88.039062 14.167969 87.785156 12.859375 87.785156 11.433594 C 87.785156 10.011719 88.039062 8.710938 88.554688 7.535156 C 89.066406 6.339844 89.777344 5.308594 90.683594 4.4375 C 91.605469 3.566406 92.683594 2.898438 93.925781 2.433594 C 95.179688 1.949219 96.546875 1.710938 98.019531 1.710938 C 99.738281 1.710938 101.269531 2.011719 102.617188 2.617188 C 103.984375 3.226562 105.113281 4.097656 106.019531 5.238281 L 102.667969 8.28125 C 102.066406 7.574219 101.402344 7.027344 100.679688 6.652344 C 99.96875 6.277344 99.171875 6.089844 98.285156 6.089844 C 97.523438 6.089844 96.820312 6.214844 96.183594 6.464844 C 95.542969 6.714844 94.996094 7.078125 94.535156 7.558594 C 94.09375 8.023438 93.738281 8.585938 93.472656 9.246094 C 93.222656 9.90625 93.097656 10.632812 93.097656 11.433594 C 93.097656 12.234375 93.222656 12.964844 93.472656 13.625 C 93.738281 14.285156 94.09375 14.855469 94.535156 15.335938 C 94.996094 15.800781 95.542969 16.15625 96.183594 16.40625 C 96.820312 16.65625 97.523438 16.777344 98.285156 16.777344 C 99.171875 16.777344 99.96875 16.59375 100.679688 16.21875 C 101.402344 15.84375 102.066406 15.300781 102.667969 14.589844 L 106.019531 17.632812 C 105.113281 18.753906 103.984375 19.628906 102.617188 20.25 C 101.269531 20.859375 99.738281 21.160156 98.019531 21.160156 Z M 115.8125 20.785156 L 115.8125 18.085938 L 115.464844 17.417969 L 115.464844 12.453125 C 115.464844 11.652344 115.21875 11.03125 114.722656 10.605469 C 114.242188 10.160156 113.472656 9.9375 112.410156 9.9375 C 111.714844 9.9375 111.015625 10.054688 110.308594 10.285156 C 109.601562 10.5 108.996094 10.804688 108.503906 11.195312 L 106.800781 7.746094 C 107.613281 7.214844 108.589844 6.804688 109.722656 6.519531 C 110.878906 6.214844 112.015625 6.066406 113.152344 6.066406 C 115.492188 6.066406 117.300781 6.609375 118.578125 7.695312 C 119.871094 8.761719 120.519531 10.449219 120.519531 12.746094 L 120.519531 20.785156 Z M 111.558594 21.027344 C 110.40625 21.027344 109.429688 20.832031 108.632812 20.4375 C 107.835938 20.046875 107.226562 19.511719 106.800781 18.835938 C 106.390625 18.160156 106.1875 17.402344 106.1875 16.5625 C 106.1875 15.675781 106.40625 14.90625 106.855469 14.269531 C 107.3125 13.609375 108.015625 13.113281 108.953125 12.769531 C 109.894531 12.414062 111.109375 12.234375 112.59375 12.234375 L 116 12.234375 L 116 14.882812 L 113.285156 14.882812 C 112.472656 14.882812 111.894531 15.015625 111.558594 15.28125 C 111.242188 15.550781 111.078125 15.90625 111.078125 16.351562 C 111.078125 16.796875 111.25 17.152344 111.582031 17.417969 C 111.921875 17.6875 112.378906 17.820312 112.96875 17.820312 C 113.515625 17.820312 114.011719 17.6875 114.453125 17.417969 C 114.917969 17.136719 115.25 16.707031 115.464844 16.136719 L 116.15625 18.007812 C 115.890625 19.007812 115.367188 19.761719 114.589844 20.277344 C 113.828125 20.777344 112.8125 21.027344 111.558594 21.027344 Z M 129.074219 21.027344 C 127.230469 21.027344 125.792969 20.570312 124.765625 19.664062 C 123.742188 18.738281 123.226562 17.347656 123.226562 15.496094 L 123.226562 3.074219 L 128.277344 3.074219 L 128.277344 15.441406 C 128.277344 15.957031 128.417969 16.367188 128.703125 16.671875 C 128.988281 16.957031 129.351562 17.097656 129.792969 17.097656 C 130.394531 17.097656 130.90625 16.949219 131.332031 16.644531 L 132.585938 20.199219 C 132.160156 20.484375 131.636719 20.6875 131.015625 20.8125 C 130.394531 20.957031 129.746094 21.027344 129.074219 21.027344 Z M 121.125 10.632812 L 121.125 6.84375 L 131.574219 6.84375 L 131.574219 10.632812 Z M 142.265625 20.785156 L 142.265625 18.085938 L 141.921875 17.417969 L 141.921875 12.453125 C 141.921875 11.652344 141.675781 11.03125 141.175781 10.605469 C 140.699219 10.160156 139.925781 9.9375 138.867188 9.9375 C 138.171875 9.9375 137.472656 10.054688 136.761719 10.285156 C 136.058594 10.5 135.453125 10.804688 134.953125 11.195312 L 133.257812 7.746094 C 134.070312 7.214844 135.046875 6.804688 136.179688 6.519531 C 137.332031 6.214844 138.472656 6.066406 139.609375 6.066406 C 141.949219 6.066406 143.757812 6.609375 145.03125 7.695312 C 146.324219 8.761719 146.96875 10.449219 146.96875 12.746094 L 146.96875 20.785156 Z M 138.015625 21.027344 C 136.863281 21.027344 135.886719 20.832031 135.089844 20.4375 C 134.292969 20.046875 133.683594 19.511719 133.257812 18.835938 C 132.847656 18.160156 132.644531 17.402344 132.644531 16.5625 C 132.644531 15.675781 132.863281 14.90625 133.304688 14.269531 C 133.769531 13.609375 134.472656 13.113281 135.410156 12.769531 C 136.347656 12.414062 137.5625 12.234375 139.050781 12.234375 L 142.453125 12.234375 L 142.453125 14.882812 L 139.742188 14.882812 C 138.929688 14.882812 138.351562 15.015625 138.015625 15.28125 C 137.691406 15.550781 137.535156 15.90625 137.535156 16.351562 C 137.535156 16.796875 137.707031 17.152344 138.039062 17.417969 C 138.378906 17.6875 138.835938 17.820312 139.421875 17.820312 C 139.972656 17.820312 140.46875 17.6875 140.910156 17.417969 C 141.375 17.136719 141.707031 16.707031 141.921875 16.136719 L 142.613281 18.007812 C 142.347656 19.007812 141.824219 19.761719 141.042969 20.277344 C 140.285156 20.777344 139.273438 21.027344 138.015625 21.027344 Z M 158.164062 21.027344 C 156.941406 21.027344 155.894531 20.757812 155.023438 20.226562 C 154.15625 19.675781 153.492188 18.855469 153.03125 17.765625 C 152.589844 16.664062 152.367188 15.257812 152.367188 13.546875 C 152.367188 11.816406 152.578125 10.410156 153.003906 9.324219 C 153.429688 8.21875 154.070312 7.402344 154.921875 6.867188 C 155.785156 6.332031 156.871094 6.066406 158.164062 6.066406 C 159.472656 6.066406 160.660156 6.378906 161.722656 7 C 162.804688 7.605469 163.65625 8.46875 164.277344 9.59375 C 164.914062 10.695312 165.234375 12.015625 165.234375 13.546875 C 165.234375 15.078125 164.914062 16.40625 164.277344 17.527344 C 163.65625 18.648438 162.804688 19.511719 161.722656 20.117188 C 160.660156 20.726562 159.472656 21.027344 158.164062 21.027344 Z M 149.097656 25.96875 L 149.097656 6.308594 L 153.910156 6.308594 L 153.910156 8.761719 L 153.882812 13.546875 L 154.148438 18.355469 L 154.148438 25.96875 Z M 157.101562 16.992188 C 157.667969 16.992188 158.171875 16.859375 158.613281 16.59375 C 159.074219 16.324219 159.4375 15.933594 159.703125 15.417969 C 159.988281 14.898438 160.128906 14.277344 160.128906 13.546875 C 160.128906 12.816406 159.988281 12.195312 159.703125 11.675781 C 159.4375 11.15625 159.074219 10.765625 158.613281 10.5 C 158.171875 10.230469 157.667969 10.097656 157.101562 10.097656 C 156.53125 10.097656 156.019531 10.230469 155.554688 10.5 C 155.113281 10.765625 154.75 11.15625 154.464844 11.675781 C 154.203125 12.195312 154.070312 12.816406 154.070312 13.546875 C 154.070312 14.277344 154.203125 14.898438 154.464844 15.417969 C 154.75 15.933594 155.113281 16.324219 155.554688 16.59375 C 156.019531 16.859375 156.53125 16.992188 157.101562 16.992188 Z M 172.578125 21.027344 C 171.410156 21.027344 170.355469 20.796875 169.414062 20.332031 C 168.492188 19.871094 167.765625 19.148438 167.238281 18.167969 C 166.71875 17.167969 166.464844 15.917969 166.464844 14.402344 L 166.464844 6.308594 L 171.515625 6.308594 L 171.515625 13.570312 C 171.515625 14.695312 171.71875 15.496094 172.128906 15.976562 C 172.554688 16.460938 173.148438 16.699219 173.90625 16.699219 C 174.402344 16.699219 174.855469 16.585938 175.261719 16.351562 C 175.671875 16.121094 175.996094 15.753906 176.246094 15.257812 C 176.492188 14.738281 176.621094 14.082031 176.621094 13.277344 L 176.621094 6.308594 L 181.667969 6.308594 L 181.667969 20.785156 L 176.855469 20.785156 L 176.855469 16.699219 L 177.789062 17.84375 C 177.292969 18.914062 176.574219 19.714844 175.632812 20.25 C 174.695312 20.765625 173.675781 21.027344 172.578125 21.027344 Z M 183.859375 20.785156 L 183.859375 0.964844 L 188.910156 0.964844 L 188.910156 20.785156 Z M 199.019531 21.027344 C 197.171875 21.027344 195.738281 20.570312 194.710938 19.664062 C 193.679688 18.738281 193.167969 17.347656 193.167969 15.496094 L 193.167969 3.074219 L 198.222656 3.074219 L 198.222656 15.441406 C 198.222656 15.957031 198.363281 16.367188 198.648438 16.671875 C 198.925781 16.957031 199.289062 17.097656 199.734375 17.097656 C 200.335938 17.097656 200.851562 16.949219 201.277344 16.644531 L 202.527344 20.199219 C 202.101562 20.484375 201.578125 20.6875 200.960938 20.8125 C 200.335938 20.957031 199.691406 21.027344 199.019531 21.027344 Z M 191.066406 10.632812 L 191.066406 6.84375 L 201.515625 6.84375 L 201.515625 10.632812 Z M 191.066406 10.632812 "/>
</g>
</svg>
